<?xml version="1.0" encoding="UTF-8" standalone="no"?>
<svg
   xmlns:dc="http://purl.org/dc/elements/1.1/"
   xmlns:cc="http://creativecommons.org/ns#"
   xmlns:rdf="http://www.w3.org/1999/02/22-rdf-syntax-ns#"
   xmlns:svg="http://www.w3.org/2000/svg"
   xmlns="http://www.w3.org/2000/svg"
   xmlns:sodipodi="http://sodipodi.sourceforge.net/DTD/sodipodi-0.dtd"
   xmlns:inkscape="http://www.inkscape.org/namespaces/inkscape"
   inkscape:version="1.0 (6e3e5246a0, 2020-05-07)"
   sodipodi:docname="gray_logo.svg"
   viewBox="0 0 349.22232 51.889191"
   height="51.889191"
   width="349.22232"
   xml:space="preserve"
   id="svg2"
   version="1.1"><metadata
     id="metadata8"><rdf:RDF><cc:Work
         rdf:about=""><dc:format>image/svg+xml</dc:format><dc:type
           rdf:resource="http://purl.org/dc/dcmitype/StillImage" /><dc:title></dc:title></cc:Work></rdf:RDF></metadata><defs
     id="defs6"><clipPath
       id="clipPath18"
       clipPathUnits="userSpaceOnUse"><path
         id="path16"
         d="M 0,293.75 H 460.625 V 0 H 0 Z" /></clipPath></defs><sodipodi:namedview
     inkscape:current-layer="g10"
     inkscape:window-maximized="1"
     inkscape:window-y="27"
     inkscape:window-x="0"
     inkscape:cy="2.3321113"
     inkscape:cx="187.0835"
     inkscape:zoom="2.2212767"
     showgrid="false"
     id="namedview4"
     inkscape:window-height="1016"
     inkscape:window-width="1920"
     inkscape:pageshadow="2"
     inkscape:pageopacity="0"
     guidetolerance="10"
     gridtolerance="10"
     objecttolerance="10"
     borderopacity="1"
     bordercolor="#666666"
     pagecolor="#ffffff" /><g
     transform="matrix(1.3333333,0,0,-1.3333333,-119.99984,198.16545)"
     inkscape:label="SELLING SIMPLIFIED LOGO_GREY"
     inkscape:groupmode="layer"
     id="g10"><g
       id="g12"><g
         clip-path="url(#clipPath18)"
         id="g14"><g
           transform="translate(149.3379,140.6064)"
           id="g20"><path
             id="path22"
             style="fill:#808181;fill-opacity:1;fill-rule:nonzero;stroke:none"
             d="m 0,0 c -0.004,-0.281 -0.084,-0.555 -0.23,-0.795 -0.114,-0.217 -0.271,-0.408 -0.461,-0.562 -0.247,0.265 -0.518,0.509 -0.808,0.728 -0.429,0.326 -0.893,0.604 -1.383,0.827 -0.635,0.295 -1.296,0.53 -1.975,0.7 -0.844,0.209 -1.711,0.311 -2.58,0.3 -3.844,0 -5.766,-1.412 -5.766,-4.237 -0.016,-0.581 0.097,-1.158 0.332,-1.69 0.22,-0.461 0.545,-0.864 0.951,-1.174 0.461,-0.347 0.971,-0.62 1.514,-0.812 0.648,-0.235 1.313,-0.424 1.989,-0.562 l 3.431,-0.73 c 1.681,-0.269 3.253,-1.004 4.54,-2.118 1.032,-1.084 1.57,-2.547 1.484,-4.041 0.009,-0.901 -0.158,-1.795 -0.49,-2.633 -0.324,-0.802 -0.839,-1.512 -1.5,-2.069 -0.748,-0.615 -1.61,-1.076 -2.537,-1.358 -1.158,-0.352 -2.365,-0.521 -3.575,-0.5 -0.973,-0.007 -1.944,0.081 -2.9,0.265 -0.806,0.157 -1.597,0.385 -2.363,0.68 -0.633,0.242 -1.246,0.535 -1.831,0.878 -0.449,0.261 -0.884,0.549 -1.3,0.859 l 0.98,1.787 c 0.288,-0.221 0.658,-0.474 1.109,-0.761 0.515,-0.319 1.055,-0.596 1.614,-0.828 0.679,-0.282 1.382,-0.504 2.1,-0.662 0.857,-0.184 1.732,-0.273 2.609,-0.264 1.522,-0.085 3.033,0.29 4.338,1.076 1.074,0.769 1.67,2.042 1.572,3.359 0.023,0.661 -0.106,1.318 -0.376,1.922 -0.233,0.487 -0.584,0.909 -1.023,1.225 -0.462,0.323 -0.972,0.569 -1.513,0.728 -0.577,0.178 -1.181,0.332 -1.815,0.465 l -3.4,0.663 c -0.813,0.143 -1.606,0.382 -2.363,0.711 -0.697,0.299 -1.339,0.713 -1.9,1.225 -0.543,0.503 -0.979,1.111 -1.283,1.787 -0.329,0.757 -0.491,1.575 -0.475,2.399 -0.007,0.828 0.129,1.651 0.4,2.434 0.276,0.772 0.736,1.465 1.34,2.02 0.701,0.63 1.526,1.104 2.423,1.392 1.179,0.37 2.41,0.543 3.645,0.512 0.927,0.011 1.853,-0.061 2.768,-0.213 0.676,-0.115 1.342,-0.287 1.989,-0.514 0.454,-0.158 0.89,-0.363 1.3,-0.613 C -1.167,1.65 -0.926,1.479 -0.697,1.293 -0.473,1.105 -0.284,0.882 -0.136,0.631 -0.042,0.434 0.004,0.218 0,0" /></g><g
           transform="translate(154.7168,128.916)"
           id="g24"><path
             id="path26"
             style="fill:#808181;fill-opacity:1;fill-rule:nonzero;stroke:none"
             d="m 0,0 c 0.519,-0.044 1.023,-0.072 1.514,-0.083 0.491,-0.011 1,-0.016 1.542,-0.016 1.083,-0.021 2.165,0.074 3.227,0.281 0.704,0.134 1.38,0.386 2,0.745 C 8.725,1.184 9.082,1.564 9.308,2.023 9.5,2.438 9.598,2.89 9.597,3.347 9.614,3.885 9.5,4.42 9.265,4.904 9.056,5.31 8.749,5.657 8.371,5.914 7.985,6.172 7.555,6.357 7.102,6.46 6.625,6.571 6.138,6.626 5.648,6.625 4.818,6.643 3.996,6.455 3.255,6.079 2.572,5.723 1.977,5.22 1.512,4.606 1.029,3.967 0.657,3.25 0.412,2.487 0.153,1.684 0.015,0.846 0.001,0.001 Z m 0.059,-1.722 c 0.113,-1.495 0.769,-2.896 1.845,-3.94 1.118,-0.963 2.562,-1.461 4.036,-1.391 0.856,-0.025 1.707,0.139 2.493,0.479 0.543,0.245 1.067,0.527 1.57,0.844 l 0.836,-1.589 C 10.685,-7.43 10.454,-7.579 10.146,-7.767 9.787,-7.979 9.411,-8.162 9.022,-8.313 8.535,-8.503 8.034,-8.652 7.522,-8.761 6.916,-8.887 6.297,-8.947 5.677,-8.943 4.657,-8.95 3.646,-8.765 2.694,-8.396 1.773,-8.04 0.938,-7.492 0.243,-6.79 c -0.728,0.747 -1.292,1.639 -1.657,2.616 -0.424,1.154 -0.629,2.378 -0.606,3.608 -0.015,1.233 0.18,2.46 0.577,3.627 0.351,1.034 0.899,1.99 1.614,2.814 C 0.853,6.652 1.693,7.273 2.636,7.697 3.62,8.134 4.687,8.354 5.763,8.342 6.62,8.358 7.473,8.229 8.286,7.962 8.957,7.737 9.57,7.37 10.086,6.886 10.564,6.426 10.933,5.866 11.167,5.246 11.411,4.595 11.533,3.905 11.527,3.21 11.535,2.523 11.403,1.843 11.138,1.21 10.851,0.568 10.393,0.019 9.813,-0.38 9.053,-0.891 8.202,-1.25 7.305,-1.439 6.003,-1.719 4.673,-1.847 3.341,-1.82 c -0.615,0 -1.177,0.006 -1.686,0.017 -0.509,0.011 -1.04,0.038 -1.596,0.081" /></g><g
           transform="translate(168.918,143.7197)"
           id="g28"><path
             id="path30"
             style="fill:#808181;fill-opacity:1;fill-rule:nonzero;stroke:none"
             d="m 0,0 c -0.011,0.29 0.077,0.575 0.249,0.81 0.199,0.224 0.493,0.34 0.792,0.313 0.17,0 0.339,-0.028 0.5,-0.083 0.125,-0.038 0.245,-0.089 0.36,-0.149 v -24.172 h -1.9 z" /></g><g
           transform="translate(174.5278,143.7197)"
           id="g32"><path
             id="path34"
             style="fill:#808181;fill-opacity:1;fill-rule:nonzero;stroke:none"
             d="m 0,0 c -0.012,0.291 0.074,0.576 0.245,0.812 0.199,0.224 0.493,0.34 0.792,0.313 0.17,0 0.339,-0.028 0.5,-0.083 0.125,-0.038 0.245,-0.089 0.36,-0.149 v -24.172 h -1.9 z" /></g><g
           transform="translate(180.1602,135.6719)"
           id="g36"><path
             id="path38"
             style="fill:#808181;fill-opacity:1;fill-rule:nonzero;stroke:none"
             d="M 0,0 C -0.013,0.29 0.074,0.576 0.245,0.812 0.444,1.036 0.738,1.152 1.037,1.125 1.207,1.124 1.375,1.097 1.537,1.042 1.662,1.003 1.782,0.953 1.898,0.894 v -16.125 h -1.9 z M 2.335,6.921 C 2.343,6.501 2.195,6.094 1.918,5.778 1.675,5.477 1.31,5.301 0.923,5.299 c -0.383,0 -0.745,0.177 -0.98,0.479 -0.268,0.32 -0.41,0.726 -0.4,1.143 -0.011,0.412 0.131,0.814 0.4,1.127 0.24,0.295 0.6,0.466 0.98,0.464 0.384,0 0.748,-0.17 0.995,-0.464 C 2.195,7.739 2.345,7.336 2.335,6.921" /></g><g
           transform="translate(197.0898,120.4395)"
           id="g40"><path
             id="path42"
             style="fill:#808181;fill-opacity:1;fill-rule:nonzero;stroke:none"
             d="m 0,0 v 9.138 c 0.092,1.518 -0.331,3.024 -1.2,4.272 -0.892,1.058 -2.237,1.624 -3.617,1.523 -1.375,0.102 -2.715,-0.464 -3.6,-1.523 -0.858,-1.253 -1.274,-2.757 -1.181,-4.272 V 0 h -1.9 v 9.8 c -0.011,0.969 0.145,1.931 0.462,2.847 0.285,0.824 0.735,1.579 1.325,2.219 0.588,0.626 1.304,1.118 2.1,1.441 0.89,0.354 1.842,0.528 2.8,0.512 0.961,0.015 1.916,-0.16 2.81,-0.512 0.803,-0.32 1.526,-0.812 2.118,-1.441 C 0.708,14.227 1.159,13.471 1.444,12.647 1.761,11.731 1.917,10.769 1.906,9.8 V 0 Z" /></g><g
           transform="translate(203.8452,128.6201)"
           id="g44"><path
             id="path46"
             style="fill:#808181;fill-opacity:1;fill-rule:nonzero;stroke:none"
             d="m 0,0 c -0.009,-0.931 0.122,-1.857 0.389,-2.749 0.231,-0.784 0.613,-1.517 1.126,-2.153 0.477,-0.587 1.077,-1.062 1.758,-1.391 0.726,-0.343 1.519,-0.514 2.322,-0.5 0.795,-0.012 1.581,0.17 2.291,0.53 0.681,0.351 1.28,0.841 1.758,1.44 0.507,0.639 0.889,1.37 1.125,2.152 0.265,0.875 0.396,1.785 0.388,2.7 0.01,0.909 -0.125,1.814 -0.4,2.681 C 10.513,3.479 10.132,4.196 9.633,4.829 9.157,5.422 8.556,5.902 7.874,6.237 7.166,6.583 6.386,6.759 5.598,6.75 4.792,6.765 3.995,6.582 3.276,6.22 2.595,5.868 1.997,5.378 1.518,4.78 1.01,4.14 0.629,3.41 0.394,2.628 0.129,1.777 -0.004,0.891 -0.001,0 Z m 13.087,-5.365 c 0.033,-1.529 -0.171,-3.053 -0.606,-4.519 -0.333,-1.122 -0.908,-2.156 -1.686,-3.03 -0.706,-0.763 -1.586,-1.343 -2.565,-1.69 -1.033,-0.359 -2.12,-0.539 -3.214,-0.529 -1.177,-0.036 -2.352,0.103 -3.488,0.413 -0.636,0.193 -1.262,0.419 -1.874,0.679 l 0.519,1.789 c 0.115,-0.044 0.3,-0.127 0.561,-0.249 0.322,-0.143 0.654,-0.259 0.995,-0.348 0.403,-0.111 0.864,-0.211 1.384,-0.3 0.562,-0.091 1.131,-0.135 1.7,-0.132 0.728,0.004 1.453,0.087 2.162,0.249 0.76,0.171 1.467,0.522 2.062,1.026 0.687,0.607 1.22,1.366 1.557,2.219 0.459,1.232 0.67,2.543 0.619,3.857 v 0.8 C 10.674,-6.194 9.864,-7.097 8.864,-7.746 7.862,-8.358 6.707,-8.67 5.534,-8.646 c -1.103,-0.019 -2.196,0.208 -3.2,0.663 -0.922,0.425 -1.735,1.053 -2.379,1.837 -0.662,0.817 -1.165,1.749 -1.484,2.749 -0.354,1.098 -0.53,2.246 -0.519,3.4 -0.009,1.143 0.182,2.281 0.562,3.36 0.35,1.005 0.883,1.937 1.572,2.749 0.665,0.778 1.485,1.409 2.407,1.854 0.968,0.46 2.028,0.691 3.1,0.678 C 6.508,8.652 7.417,8.489 8.273,8.165 9.086,7.854 9.83,7.387 10.464,6.79 11.12,6.163 11.658,5.422 12.05,4.604 12.491,3.683 12.792,2.7 12.944,1.689 c 0.037,-0.308 0.072,-0.667 0.1,-1.075 0.028,-0.409 0.044,-0.879 0.044,-1.406 z" /></g><g
           transform="translate(220.7988,125.6387)"
           id="g48"><path
             id="path50"
             style="fill:#808181;fill-opacity:1;fill-rule:nonzero;stroke:none"
             d="m 0,0 c 0.301,-0.237 0.619,-0.453 0.951,-0.646 0.504,-0.293 1.029,-0.547 1.572,-0.761 0.691,-0.276 1.405,-0.491 2.132,-0.646 0.858,-0.182 1.733,-0.271 2.609,-0.264 1.256,-0.109 2.514,0.186 3.59,0.842 0.728,0.579 1.131,1.472 1.082,2.401 C 11.948,1.368 11.865,1.81 11.691,2.218 11.525,2.573 11.278,2.885 10.969,3.127 10.623,3.396 10.233,3.604 9.816,3.741 9.312,3.909 8.797,4.043 8.275,4.142 L 5.104,4.804 C 4.304,4.957 3.522,5.191 2.769,5.503 2.042,5.798 1.37,6.212 0.779,6.729 0.193,7.249 -0.278,7.887 -0.605,8.6 c -0.365,0.839 -0.542,1.749 -0.518,2.665 -0.004,0.901 0.147,1.798 0.446,2.648 0.295,0.833 0.784,1.582 1.428,2.187 0.716,0.656 1.561,1.157 2.479,1.472 1.17,0.391 2.399,0.575 3.632,0.546 0.908,0.01 1.814,-0.056 2.71,-0.2 0.665,-0.106 1.32,-0.267 1.959,-0.479 0.452,-0.148 0.888,-0.341 1.3,-0.579 0.326,-0.2 0.567,-0.353 0.721,-0.464 0.29,-0.224 0.543,-0.493 0.75,-0.794 0.195,-0.295 0.296,-0.642 0.289,-0.995 0.003,-0.498 -0.135,-0.986 -0.4,-1.408 -0.196,-0.344 -0.45,-0.651 -0.75,-0.91 -0.241,0.282 -0.517,0.533 -0.822,0.745 -0.431,0.309 -0.896,0.57 -1.384,0.779 -0.619,0.266 -1.26,0.476 -1.917,0.628 C 8.534,14.625 7.73,14.714 6.925,14.707 6.193,14.722 5.462,14.644 4.749,14.475 4.243,14.358 3.767,14.139 3.349,13.829 3.017,13.569 2.758,13.227 2.6,12.835 2.441,12.418 2.363,11.974 2.37,11.527 2.333,10.774 2.646,10.046 3.22,9.557 4.067,8.964 5.039,8.573 6.06,8.415 L 9.289,7.716 c 1.745,-0.278 3.38,-1.029 4.728,-2.171 1.118,-1.163 1.694,-2.744 1.585,-4.354 0.016,-0.982 -0.17,-1.957 -0.547,-2.864 -0.362,-0.844 -0.909,-1.596 -1.6,-2.2 -0.766,-0.652 -1.659,-1.138 -2.624,-1.424 -1.173,-0.349 -2.393,-0.518 -3.617,-0.5 -1.065,-0.009 -2.128,0.097 -3.171,0.315 -0.874,0.184 -1.731,0.439 -2.565,0.761 -0.649,0.249 -1.276,0.554 -1.874,0.911 -0.499,0.309 -0.864,0.552 -1.095,0.729 z" /></g><g
           transform="translate(239.3062,135.3135)"
           id="g52"><path
             id="path54"
             style="fill:#808181;fill-opacity:1;fill-rule:nonzero;stroke:none"
             d="m 0,0 c -0.046,0.492 0.122,0.98 0.461,1.34 0.366,0.296 0.83,0.443 1.3,0.414 C 2.084,1.757 2.406,1.707 2.713,1.604 3.001,1.506 3.192,1.435 3.288,1.391 V -14.868 H 0.002 Z M 1.644,9.199 C 2.19,9.205 2.71,8.961 3.056,8.537 3.443,8.088 3.649,7.509 3.633,6.915 3.649,6.321 3.444,5.742 3.056,5.292 2.71,4.868 2.19,4.624 1.644,4.63 1.097,4.624 0.577,4.867 0.231,5.292 c -0.388,0.45 -0.594,1.029 -0.577,1.623 -0.017,0.594 0.189,1.173 0.577,1.622 0.346,0.424 0.866,0.667 1.413,0.662" /></g><g
           transform="translate(245.9771,131.1357)"
           id="g56"><path
             id="path58"
             style="fill:#808181;fill-opacity:1;fill-rule:nonzero;stroke:none"
             d="m 0,0 c -0.02,0.95 0.147,1.896 0.49,2.782 0.298,0.751 0.755,1.429 1.34,1.987 0.577,0.535 1.257,0.946 2,1.208 0.806,0.282 1.654,0.421 2.508,0.414 1.114,0.018 2.214,-0.245 3.2,-0.763 0.951,-0.517 1.732,-1.299 2.248,-2.251 0.511,0.946 1.281,1.727 2.22,2.251 0.965,0.518 2.047,0.781 3.142,0.763 0.843,0.005 1.681,-0.13 2.479,-0.401 0.742,-0.249 1.421,-0.655 1.99,-1.192 0.578,-0.561 1.029,-1.237 1.325,-1.986 0.343,-0.887 0.51,-1.832 0.49,-2.782 v -10.729 h -3.286 v 9.437 C 20.255,-0.102 19.937,1.058 19.252,2 18.626,2.664 17.742,3.021 16.831,2.977 15.889,2.993 14.987,2.593 14.367,1.884 13.612,0.865 13.258,-0.396 13.372,-1.659 v -9.04 h -3.279 v 9.04 C 10.206,-0.396 9.852,0.864 9.099,1.884 8.478,2.594 7.576,2.993 6.634,2.977 5.721,3.012 4.838,2.65 4.213,1.984 3.51,1.043 3.182,-0.125 3.29,-1.295 v -9.399 H 0.004 Z" /></g><g
           transform="translate(280.2251,123.3535)"
           id="g60"><path
             id="path62"
             style="fill:#808181;fill-opacity:1;fill-rule:nonzero;stroke:none"
             d="M 0,0 C 0.624,-0.006 1.241,0.137 1.8,0.414 2.347,0.69 2.829,1.08 3.213,1.558 3.62,2.07 3.928,2.654 4.12,3.279 4.336,3.976 4.443,4.702 4.437,5.432 4.442,6.144 4.335,6.853 4.12,7.531 3.927,8.146 3.62,8.72 3.213,9.22 2.825,9.689 2.344,10.073 1.8,10.347 1.241,10.624 0.624,10.766 0,10.76 -0.623,10.766 -1.239,10.629 -1.8,10.359 -2.343,10.1 -2.825,9.728 -3.213,9.268 -3.624,8.773 -3.938,8.206 -4.136,7.595 -4.364,6.895 -4.476,6.162 -4.466,5.427 -4.473,4.696 -4.362,3.97 -4.136,3.274 -3.937,2.651 -3.629,2.069 -3.228,1.553 -2.851,1.073 -2.373,0.683 -1.828,0.409 -1.26,0.131 -0.633,-0.01 0,-0.001 Z m -7.725,4.637 c -0.024,1.384 0.171,2.764 0.577,4.089 0.334,1.09 0.883,2.104 1.614,2.98 0.682,0.8 1.541,1.429 2.508,1.839 1.031,0.43 2.14,0.643 3.257,0.629 1.046,0.011 2.081,-0.216 3.027,-0.662 C 4.175,13.073 4.994,12.453 5.665,11.69 6.372,10.874 6.915,9.93 7.265,8.908 7.658,7.78 7.853,6.593 7.842,5.398 7.855,4.199 7.665,3.007 7.28,1.871 6.939,0.86 6.411,-0.077 5.724,-0.894 5.079,-1.649 4.284,-2.263 3.388,-2.693 2.475,-3.129 1.475,-3.351 0.463,-3.341 c -1.019,-0.018 -2.024,0.233 -2.913,0.73 -0.791,0.436 -1.471,1.048 -1.989,1.789 V -9.53 h -3.286 z" /></g><g
           transform="translate(290.8521,143.0898)"
           id="g64"><path
             id="path66"
             style="fill:#808181;fill-opacity:1;fill-rule:nonzero;stroke:none"
             d="m 0,0 c -0.04,0.487 0.127,0.969 0.461,1.325 0.361,0.306 0.827,0.46 1.3,0.43 C 2.084,1.759 2.405,1.708 2.712,1.606 3.001,1.506 3.193,1.435 3.289,1.391 v -24.04 H 0 Z" /></g><g
           transform="translate(297.6421,135.3135)"
           id="g68"><path
             id="path70"
             style="fill:#808181;fill-opacity:1;fill-rule:nonzero;stroke:none"
             d="m 0,0 c -0.046,0.492 0.122,0.98 0.461,1.34 0.366,0.296 0.83,0.443 1.3,0.414 C 2.084,1.757 2.406,1.707 2.713,1.604 3.001,1.506 3.192,1.435 3.288,1.391 V -14.868 H 0.002 Z M 1.644,9.199 C 2.191,9.205 2.71,8.961 3.056,8.537 3.443,8.088 3.649,7.509 3.633,6.915 3.65,6.321 3.444,5.742 3.056,5.292 2.71,4.868 2.191,4.624 1.644,4.63 1.097,4.624 0.577,4.867 0.231,5.292 c -0.388,0.45 -0.594,1.029 -0.577,1.623 -0.016,0.594 0.189,1.173 0.577,1.622 0.346,0.424 0.866,0.667 1.413,0.662" /></g><g
           transform="translate(304.4951,138.0898)"
           id="g72"><path
             id="path74"
             style="fill:#808181;fill-opacity:1;fill-rule:nonzero;stroke:none"
             d="M 0,0 C -0.029,1.07 0.141,2.138 0.5,3.146 0.791,3.938 1.259,4.65 1.869,5.232 2.452,5.766 3.146,6.161 3.902,6.392 4.719,6.641 5.57,6.764 6.425,6.756 7.704,6.83 8.984,6.621 10.173,6.144 10.877,5.881 11.354,5.221 11.384,4.47 11.389,4.114 11.294,3.765 11.11,3.46 10.959,3.197 10.758,2.967 10.519,2.781 10.323,2.939 10.104,3.068 9.87,3.162 9.576,3.289 9.272,3.394 8.963,3.477 8.626,3.567 8.284,3.64 7.939,3.692 7.61,3.745 7.277,3.772 6.944,3.775 5.948,3.833 4.972,3.487 4.235,2.815 3.514,1.985 3.16,0.897 3.255,-0.198 v -0.827 h 8.331 c 0.51,0.074 1.023,-0.12 1.356,-0.514 0.243,-0.487 0.351,-1.029 0.316,-1.573 V -17.647 H 10.001 V -4.502 H 3.257 V -17.647 H 0 Z" /></g><g
           transform="translate(323.9639,129.5127)"
           id="g76"><path
             id="path78"
             style="fill:#808181;fill-opacity:1;fill-rule:nonzero;stroke:none"
             d="M 0,0 C 0.441,-0.022 0.864,-0.032 1.268,-0.032 H 2.479 C 3.34,-0.052 4.201,0.026 5.044,0.199 5.584,0.31 6.101,0.513 6.572,0.799 6.895,0.992 7.147,1.282 7.293,1.627 7.408,1.935 7.467,2.26 7.466,2.587 7.514,3.325 7.183,4.036 6.587,4.475 5.947,4.91 5.185,5.131 4.411,5.104 3.76,5.118 3.116,4.97 2.537,4.672 2.009,4.394 1.547,4.005 1.182,3.531 0.807,3.037 0.52,2.482 0.332,1.892 0.131,1.28 0.019,0.644 0,0 M 10.121,-7.847 C 9.968,-7.958 9.727,-8.111 9.402,-8.312 9.013,-8.538 8.603,-8.727 8.177,-8.874 7.622,-9.067 7.054,-9.223 6.477,-9.337 5.779,-9.475 5.069,-9.542 4.358,-9.537 3.327,-9.545 2.304,-9.354 1.345,-8.974 c -0.928,0.373 -1.764,0.944 -2.449,1.673 -0.73,0.784 -1.294,1.707 -1.658,2.714 -0.423,1.185 -0.628,2.436 -0.606,3.693 -0.015,1.234 0.185,2.46 0.591,3.625 0.361,1.036 0.92,1.992 1.644,2.814 0.69,0.775 1.534,1.395 2.479,1.822 0.984,0.438 2.05,0.657 3.127,0.646 0.904,0.016 1.803,-0.135 2.652,-0.447 0.72,-0.268 1.38,-0.673 1.946,-1.193 0.522,-0.484 0.932,-1.077 1.2,-1.737 0.27,-0.674 0.406,-1.394 0.4,-2.119 C 10.68,1.799 10.553,1.086 10.295,0.416 10.021,-0.242 9.561,-0.807 8.97,-1.206 8.19,-1.721 7.319,-2.08 6.403,-2.265 5.058,-2.546 3.685,-2.674 2.31,-2.646 c -0.385,0 -0.745,0.005 -1.082,0.016 -0.337,0.011 -0.7,0.028 -1.08,0.051 0.117,-1.057 0.625,-2.032 1.426,-2.733 0.973,-0.752 2.188,-1.124 3.416,-1.042 0.465,-0.003 0.928,0.041 1.384,0.132 0.388,0.078 0.768,0.19 1.137,0.332 0.297,0.115 0.587,0.248 0.866,0.401 0.24,0.132 0.418,0.231 0.533,0.3 z" /></g><g
           transform="translate(348.6582,128.752)"
           id="g80"><path
             id="path82"
             style="fill:#808181;fill-opacity:1;fill-rule:nonzero;stroke:none"
             d="M 0,0 C 0.004,0.72 -0.108,1.436 -0.332,2.119 -0.533,2.741 -0.84,3.324 -1.24,3.841 -1.618,4.32 -2.096,4.71 -2.64,4.984 -3.199,5.262 -3.816,5.403 -4.44,5.397 -5.07,5.407 -5.693,5.266 -6.257,4.984 -6.796,4.708 -7.272,4.324 -7.657,3.857 -8.066,3.354 -8.375,2.777 -8.565,2.157 -8.782,1.461 -8.889,0.734 -8.882,0.005 c -0.008,-0.724 0.099,-1.445 0.317,-2.136 0.192,-0.616 0.501,-1.189 0.908,-1.689 0.385,-0.467 0.861,-0.85 1.4,-1.125 0.564,-0.282 1.187,-0.424 1.817,-0.414 0.623,-0.005 1.238,0.131 1.8,0.4 0.54,0.259 1.017,0.631 1.4,1.092 0.405,0.502 0.712,1.075 0.908,1.689 C -0.105,-1.475 0.006,-0.739 0,0 m 0,14.338 c -0.041,0.484 0.121,0.964 0.446,1.325 0.354,0.307 0.815,0.461 1.283,0.43 0.323,0.004 0.645,-0.047 0.952,-0.149 0.288,-0.1 0.48,-0.172 0.575,-0.215 V 0.795 C 3.283,-0.629 3.084,-2.049 2.666,-3.411 2.327,-4.503 1.773,-5.516 1.037,-6.39 0.369,-7.167 -0.47,-7.779 -1.414,-8.179 c -0.978,-0.406 -2.027,-0.61 -3.085,-0.6 -1.079,-0.012 -2.147,0.215 -3.127,0.663 -0.938,0.431 -1.777,1.052 -2.464,1.821 -0.717,0.814 -1.27,1.758 -1.629,2.781 -0.402,1.126 -0.602,2.315 -0.591,3.511 -0.013,1.199 0.177,2.392 0.562,3.527 0.344,1.015 0.872,1.957 1.557,2.781 0.641,0.765 1.436,1.386 2.335,1.822 0.914,0.435 1.914,0.655 2.926,0.645 1.029,0.022 2.045,-0.235 2.94,-0.745 0.789,-0.444 1.469,-1.059 1.99,-1.8 z" /></g><g
           transform="translate(108.1128,148.4189)"
           id="g84"><path
             id="path86"
             style="fill:#567d38;fill-opacity:1;fill-rule:nonzero;stroke:none"
             d="M 0,0 C 0,0 12.568,-1.425 12.421,-14.748 H 4.258 c 0,0 3.787,4.057 2.579,8.406 C 6.224,-4.142 4.41,-1.282 0,0" /></g><g
           transform="translate(112.4502,135.3594)"
           id="g88"><path
             id="path90"
             style="fill:#6cac44;fill-opacity:1;fill-rule:nonzero;stroke:none"
             d="m 0,0 c 0.982,1.312 1.571,2.876 1.7,4.511 0.086,1.167 -0.08,2.338 -0.487,3.434 -1.882,4.696 -13.3,7.778 -19.11,2.709 -1.597,-1.462 -2.717,-3.37 -3.213,-5.477 0,0 -1.65,-8.471 16.261,-9.406 0,0 -8.48,2.114 -8.556,4.326 -0.635,2.64 0.992,5.295 3.632,5.929 0.237,0.057 0.479,0.096 0.722,0.118 0,0 8.9,1.575 9.051,-6.144" /></g><g
           transform="translate(90.52,138.6152)"
           id="g92"><path
             id="path94"
             style="fill:#c4d946;fill-opacity:1;fill-rule:nonzero;stroke:none"
             d="m 0,0 c 0,0 0.46,-7.8 17.108,-8.719 0,0 19.6,-1.7 11.734,-20.189 0,0 3.277,10.816 -14.355,12.192 C 14.487,-16.715 -3.802,-13.897 0,0" /></g></g></g></g></svg>
