<?xml version="1.0" encoding="UTF-8" standalone="no"?>
<svg
   xmlns:dc="http://purl.org/dc/elements/1.1/"
   xmlns:cc="http://creativecommons.org/ns#"
   xmlns:rdf="http://www.w3.org/1999/02/22-rdf-syntax-ns#"
   xmlns:svg="http://www.w3.org/2000/svg"
   xmlns="http://www.w3.org/2000/svg"
   xmlns:sodipodi="http://sodipodi.sourceforge.net/DTD/sodipodi-0.dtd"
   xmlns:inkscape="http://www.inkscape.org/namespaces/inkscape"
   inkscape:version="1.0 (6e3e5246a0, 2020-05-07)"
   sodipodi:docname="white_logo.svg"
   viewBox="0 0 349.22186 51.889401"
   height="51.8894"
   width="349.22186"
   xml:space="preserve"
   id="svg2"
   version="1.1"><metadata
     id="metadata8"><rdf:RDF><cc:Work
         rdf:about=""><dc:format>image/svg+xml</dc:format><dc:type
           rdf:resource="http://purl.org/dc/dcmitype/StillImage" /><dc:title></dc:title></cc:Work></rdf:RDF></metadata><defs
     id="defs6"><clipPath
       id="clipPath18"
       clipPathUnits="userSpaceOnUse"><path
         id="path16"
         d="M 0,192.611 H 399.898 V 0 H 0 Z" /></clipPath></defs><sodipodi:namedview
     inkscape:current-layer="g10"
     inkscape:window-maximized="1"
     inkscape:window-y="27"
     inkscape:window-x="0"
     inkscape:cy="35.31286"
     inkscape:cx="167.52236"
     inkscape:zoom="2.6219186"
     showgrid="false"
     id="namedview4"
     inkscape:window-height="1016"
     inkscape:window-width="1920"
     inkscape:pageshadow="2"
     inkscape:pageopacity="0"
     guidetolerance="10"
     gridtolerance="10"
     objecttolerance="10"
     borderopacity="1"
     bordercolor="#666666"
     pagecolor="#ffffff" /><g
     transform="matrix(1.3333333,0,0,-1.3333333,-99.0763,163.7202)"
     inkscape:label="SELLING SIMPLIFIED LOGO_WHITE"
     inkscape:groupmode="layer"
     id="g10"><g
       id="g12"><g
         clip-path="url(#clipPath18)"
         id="g14"><g
           transform="translate(133.6449,114.7723)"
           id="g20"><path
             id="path22"
             style="fill:#f7f8f8;fill-opacity:1;fill-rule:nonzero;stroke:none"
             d="m 0,0 c -0.004,-0.28 -0.084,-0.555 -0.229,-0.794 -0.115,-0.217 -0.272,-0.409 -0.461,-0.563 -0.248,0.266 -0.519,0.509 -0.809,0.729 -0.429,0.325 -0.893,0.603 -1.383,0.826 -0.635,0.295 -1.296,0.53 -1.974,0.7 -0.844,0.21 -1.711,0.311 -2.581,0.3 -3.844,0 -5.766,-1.412 -5.766,-4.237 -0.017,-0.581 0.098,-1.158 0.332,-1.69 0.22,-0.46 0.546,-0.864 0.951,-1.174 0.46,-0.346 0.971,-0.62 1.514,-0.811 0.648,-0.236 1.313,-0.425 1.989,-0.563 l 3.432,-0.729 c 1.68,-0.27 3.253,-1.005 4.539,-2.119 1.033,-1.084 1.57,-2.547 1.484,-4.041 0.009,-0.901 -0.157,-1.795 -0.49,-2.632 -0.324,-0.802 -0.839,-1.513 -1.5,-2.07 -0.748,-0.615 -1.61,-1.076 -2.537,-1.358 -1.158,-0.352 -2.365,-0.521 -3.574,-0.5 -0.974,-0.007 -1.945,0.081 -2.901,0.266 -0.806,0.156 -1.597,0.384 -2.363,0.679 -0.633,0.242 -1.245,0.536 -1.831,0.878 -0.449,0.261 -0.883,0.549 -1.3,0.86 l 0.98,1.787 c 0.289,-0.222 0.658,-0.475 1.109,-0.762 0.515,-0.319 1.055,-0.596 1.614,-0.828 0.679,-0.282 1.382,-0.504 2.1,-0.661 0.857,-0.185 1.732,-0.274 2.609,-0.265 1.522,-0.085 3.033,0.29 4.338,1.076 1.074,0.769 1.67,2.043 1.572,3.36 0.023,0.66 -0.105,1.317 -0.376,1.921 -0.232,0.487 -0.585,0.909 -1.023,1.225 -0.461,0.323 -0.973,0.569 -1.513,0.729 -0.576,0.177 -1.181,0.332 -1.815,0.464 l -3.4,0.663 c -0.813,0.143 -1.606,0.382 -2.363,0.711 -0.697,0.299 -1.34,0.713 -1.899,1.225 -0.544,0.503 -0.981,1.111 -1.284,1.787 -0.329,0.757 -0.491,1.575 -0.475,2.4 -0.006,0.827 0.129,1.65 0.4,2.433 0.277,0.772 0.736,1.465 1.34,2.021 0.701,0.629 1.526,1.103 2.423,1.391 1.179,0.37 2.41,0.543 3.645,0.512 0.927,0.011 1.854,-0.06 2.768,-0.213 0.677,-0.115 1.342,-0.287 1.989,-0.514 0.454,-0.157 0.89,-0.363 1.3,-0.613 C -1.167,1.65 -0.926,1.479 -0.697,1.293 -0.474,1.105 -0.283,0.882 -0.136,0.631 -0.043,0.434 0.004,0.218 0,0" /></g><g
           transform="translate(139.0238,103.0818)"
           id="g24"><path
             id="path26"
             style="fill:#f7f8f8;fill-opacity:1;fill-rule:nonzero;stroke:none"
             d="m 0,0 c 0.52,-0.044 1.023,-0.072 1.515,-0.083 0.49,-0.011 1,-0.016 1.542,-0.016 1.082,-0.02 2.164,0.074 3.226,0.282 0.704,0.133 1.38,0.385 2,0.744 C 8.726,1.184 9.082,1.565 9.309,2.023 9.5,2.438 9.599,2.89 9.598,3.347 9.614,3.886 9.5,4.42 9.266,4.904 9.056,5.31 8.749,5.657 8.371,5.914 7.985,6.172 7.555,6.357 7.103,6.46 6.626,6.571 6.138,6.626 5.648,6.625 4.817,6.643 3.996,6.455 3.255,6.079 2.572,5.724 1.977,5.22 1.513,4.606 1.028,3.967 0.657,3.25 0.412,2.487 0.153,1.684 0.015,0.846 0.001,0.001 Z m 0.06,-1.722 c 0.112,-1.495 0.768,-2.896 1.844,-3.94 1.117,-0.963 2.563,-1.461 4.036,-1.391 0.856,-0.025 1.707,0.139 2.494,0.479 0.542,0.245 1.066,0.527 1.569,0.845 l 0.836,-1.59 C 10.685,-7.43 10.454,-7.579 10.146,-7.767 9.787,-7.979 9.411,-8.162 9.022,-8.313 8.535,-8.503 8.033,-8.652 7.522,-8.761 6.915,-8.887 6.297,-8.947 5.678,-8.942 4.657,-8.95 3.646,-8.765 2.694,-8.396 1.773,-8.039 0.937,-7.492 0.243,-6.79 c -0.727,0.748 -1.292,1.639 -1.657,2.616 -0.424,1.154 -0.629,2.378 -0.606,3.609 -0.015,1.232 0.18,2.459 0.578,3.627 0.349,1.033 0.898,1.989 1.613,2.813 C 0.853,6.652 1.693,7.273 2.637,7.697 3.62,8.134 4.687,8.354 5.764,8.342 6.62,8.358 7.473,8.229 8.286,7.962 8.957,7.737 9.57,7.37 10.086,6.886 10.563,6.427 10.933,5.866 11.167,5.246 11.411,4.596 11.533,3.905 11.527,3.21 11.535,2.524 11.402,1.844 11.139,1.21 10.851,0.568 10.393,0.019 9.813,-0.38 9.053,-0.891 8.201,-1.25 7.306,-1.438 6.003,-1.719 4.673,-1.847 3.341,-1.82 c -0.615,0 -1.177,0.006 -1.686,0.017 -0.509,0.011 -1.041,0.038 -1.595,0.081" /></g><g
           transform="translate(153.225,117.8856)"
           id="g28"><path
             id="path30"
             style="fill:#f7f8f8;fill-opacity:1;fill-rule:nonzero;stroke:none"
             d="m 0,0 c -0.011,0.291 0.077,0.576 0.249,0.81 0.199,0.224 0.493,0.34 0.792,0.313 0.17,0 0.339,-0.028 0.5,-0.083 0.125,-0.038 0.245,-0.088 0.36,-0.149 v -24.172 h -1.9 z" /></g><g
           transform="translate(158.8354,117.8856)"
           id="g32"><path
             id="path34"
             style="fill:#f7f8f8;fill-opacity:1;fill-rule:nonzero;stroke:none"
             d="m 0,0 c -0.013,0.291 0.073,0.577 0.245,0.812 0.198,0.224 0.493,0.34 0.792,0.313 0.17,0 0.339,-0.028 0.5,-0.083 C 1.661,1.004 1.781,0.953 1.896,0.893 v -24.172 h -1.899 z" /></g><g
           transform="translate(164.4672,109.8377)"
           id="g36"><path
             id="path38"
             style="fill:#f7f8f8;fill-opacity:1;fill-rule:nonzero;stroke:none"
             d="m 0,0 c -0.013,0.291 0.074,0.576 0.245,0.812 0.199,0.224 0.493,0.34 0.792,0.313 0.17,0 0.339,-0.028 0.5,-0.083 C 1.661,1.004 1.782,0.954 1.897,0.894 V -15.231 H -0.002 Z M 2.335,6.921 C 2.344,6.502 2.194,6.094 1.918,5.778 1.676,5.477 1.31,5.301 0.923,5.299 c -0.383,0 -0.745,0.177 -0.98,0.479 -0.268,0.32 -0.41,0.726 -0.4,1.143 -0.012,0.413 0.131,0.814 0.4,1.127 0.24,0.295 0.6,0.466 0.98,0.465 C 1.307,8.512 1.671,8.343 1.918,8.048 2.195,7.739 2.345,7.336 2.335,6.921" /></g><g
           transform="translate(181.3969,94.6053)"
           id="g40"><path
             id="path42"
             style="fill:#f7f8f8;fill-opacity:1;fill-rule:nonzero;stroke:none"
             d="m 0,0 v 9.138 c 0.092,1.518 -0.331,3.024 -1.2,4.273 -0.892,1.057 -2.237,1.623 -3.616,1.522 -1.376,0.102 -2.716,-0.464 -3.601,-1.522 C -9.275,12.157 -9.69,10.653 -9.598,9.138 V 0 h -1.9 v 9.8 c -0.011,0.969 0.145,1.932 0.462,2.847 0.284,0.824 0.735,1.58 1.325,2.22 0.588,0.626 1.305,1.117 2.101,1.44 0.889,0.354 1.841,0.528 2.799,0.512 0.961,0.015 1.916,-0.16 2.81,-0.512 0.803,-0.32 1.526,-0.811 2.118,-1.44 0.591,-0.64 1.042,-1.396 1.327,-2.22 C 1.761,11.732 1.917,10.769 1.906,9.8 V 0 Z" /></g><g
           transform="translate(188.1518,102.7859)"
           id="g44"><path
             id="path46"
             style="fill:#f7f8f8;fill-opacity:1;fill-rule:nonzero;stroke:none"
             d="m 0,0 c -0.009,-0.931 0.122,-1.857 0.39,-2.749 0.23,-0.784 0.613,-1.516 1.126,-2.153 0.476,-0.586 1.077,-1.062 1.757,-1.391 0.726,-0.342 1.52,-0.514 2.323,-0.5 0.795,-0.012 1.581,0.171 2.291,0.53 0.68,0.351 1.279,0.841 1.758,1.44 0.506,0.64 0.888,1.37 1.125,2.152 0.265,0.875 0.396,1.785 0.387,2.7 C 11.168,0.938 11.033,1.844 10.758,2.71 10.514,3.479 10.133,4.196 9.634,4.829 9.157,5.422 8.557,5.902 7.874,6.237 7.166,6.583 6.387,6.759 5.599,6.75 4.793,6.765 3.996,6.583 3.276,6.22 2.596,5.868 1.997,5.378 1.519,4.78 1.011,4.141 0.63,3.41 0.395,2.628 0.13,1.777 -0.004,0.891 -0.001,0 Z m 13.087,-5.365 c 0.033,-1.529 -0.171,-3.053 -0.606,-4.519 -0.333,-1.122 -0.908,-2.156 -1.686,-3.03 -0.705,-0.763 -1.585,-1.343 -2.565,-1.689 -1.033,-0.36 -2.12,-0.54 -3.213,-0.53 -1.177,-0.036 -2.353,0.103 -3.489,0.413 -0.636,0.193 -1.261,0.419 -1.874,0.679 l 0.52,1.789 c 0.114,-0.044 0.3,-0.127 0.56,-0.249 0.322,-0.143 0.655,-0.259 0.995,-0.348 0.404,-0.111 0.865,-0.211 1.384,-0.3 0.563,-0.091 1.131,-0.135 1.7,-0.132 0.728,0.004 1.453,0.088 2.163,0.249 0.759,0.171 1.467,0.522 2.061,1.026 0.687,0.607 1.221,1.367 1.558,2.219 0.459,1.232 0.67,2.543 0.618,3.857 v 0.8 C 10.675,-6.193 9.864,-7.097 8.864,-7.746 7.863,-8.357 6.708,-8.67 5.534,-8.646 4.432,-8.665 3.339,-8.438 2.334,-7.983 1.413,-7.558 0.6,-6.93 -0.045,-6.145 c -0.661,0.816 -1.164,1.748 -1.483,2.749 -0.355,1.097 -0.53,2.246 -0.52,3.399 -0.008,1.144 0.182,2.281 0.563,3.36 0.349,1.005 0.882,1.938 1.571,2.749 C 0.752,6.89 1.571,7.521 2.493,7.966 3.461,8.426 4.521,8.658 5.594,8.644 6.509,8.652 7.418,8.49 8.273,8.165 9.086,7.854 9.831,7.387 10.464,6.79 11.121,6.163 11.658,5.423 12.051,4.604 12.492,3.683 12.793,2.7 12.944,1.69 c 0.037,-0.309 0.073,-0.667 0.1,-1.076 0.028,-0.409 0.044,-0.878 0.044,-1.406 z" /></g><g
           transform="translate(205.1059,99.8055)"
           id="g48"><path
             id="path50"
             style="fill:#f7f8f8;fill-opacity:1;fill-rule:nonzero;stroke:none"
             d="m 0,0 c 0.301,-0.238 0.619,-0.454 0.951,-0.646 0.504,-0.293 1.029,-0.548 1.572,-0.762 0.692,-0.276 1.405,-0.491 2.132,-0.646 0.858,-0.182 1.733,-0.271 2.61,-0.264 1.256,-0.109 2.513,0.186 3.589,0.842 0.728,0.579 1.131,1.472 1.083,2.401 0.011,0.443 -0.072,0.884 -0.246,1.292 C 11.525,2.572 11.278,2.884 10.97,3.127 10.623,3.396 10.233,3.604 9.816,3.74 9.313,3.908 8.797,4.042 8.275,4.141 L 5.104,4.803 C 4.305,4.956 3.521,5.19 2.77,5.503 2.042,5.797 1.369,6.211 0.779,6.728 c -0.586,0.52 -1.057,1.158 -1.383,1.871 -0.367,0.839 -0.543,1.749 -0.519,2.665 -0.004,0.902 0.147,1.798 0.446,2.648 0.295,0.833 0.784,1.582 1.428,2.187 0.717,0.656 1.561,1.157 2.479,1.472 1.17,0.391 2.399,0.576 3.632,0.546 0.908,0.01 1.814,-0.056 2.71,-0.199 0.665,-0.107 1.321,-0.268 1.959,-0.48 0.452,-0.147 0.888,-0.341 1.3,-0.579 0.326,-0.2 0.567,-0.353 0.721,-0.464 0.291,-0.224 0.544,-0.492 0.75,-0.794 0.195,-0.295 0.296,-0.641 0.289,-0.995 0.004,-0.498 -0.135,-0.986 -0.4,-1.408 -0.196,-0.344 -0.45,-0.651 -0.75,-0.91 -0.241,0.282 -0.517,0.533 -0.822,0.745 -0.431,0.309 -0.895,0.571 -1.384,0.779 -0.619,0.266 -1.26,0.477 -1.917,0.628 C 8.534,14.624 7.73,14.713 6.925,14.707 6.193,14.721 5.462,14.643 4.749,14.474 4.243,14.357 3.767,14.138 3.35,13.828 3.017,13.568 2.758,13.226 2.601,12.835 2.44,12.417 2.362,11.974 2.37,11.526 2.332,10.773 2.646,10.045 3.221,9.556 4.067,8.963 5.039,8.572 6.061,8.414 L 9.289,7.715 c 1.745,-0.278 3.381,-1.028 4.729,-2.17 1.118,-1.163 1.693,-2.744 1.585,-4.355 0.015,-0.981 -0.171,-1.957 -0.547,-2.864 -0.363,-0.844 -0.91,-1.595 -1.601,-2.199 -0.766,-0.653 -1.659,-1.139 -2.624,-1.425 -1.173,-0.349 -2.393,-0.518 -3.617,-0.5 -1.065,-0.009 -2.128,0.097 -3.171,0.315 -0.874,0.184 -1.731,0.439 -2.564,0.761 -0.651,0.249 -1.278,0.555 -1.875,0.911 -0.5,0.309 -0.864,0.552 -1.095,0.73 z" /></g><g
           transform="translate(223.6127,109.4793)"
           id="g52"><path
             id="path54"
             style="fill:#f7f8f8;fill-opacity:1;fill-rule:nonzero;stroke:none"
             d="M 0,0 C -0.046,0.492 0.122,0.98 0.461,1.34 0.827,1.636 1.291,1.783 1.762,1.754 2.085,1.758 2.406,1.707 2.714,1.604 3.001,1.506 3.193,1.435 3.288,1.391 V -14.868 H 0.002 Z M 1.645,9.199 C 2.191,9.205 2.711,8.961 3.057,8.538 3.444,8.088 3.649,7.51 3.634,6.916 3.65,6.321 3.444,5.742 3.057,5.292 2.711,4.868 2.191,4.624 1.645,4.63 1.098,4.624 0.577,4.868 0.231,5.292 c -0.387,0.45 -0.593,1.029 -0.577,1.624 -0.016,0.594 0.19,1.172 0.577,1.622 0.347,0.423 0.867,0.666 1.414,0.661" /></g><g
           transform="translate(230.2846,105.3016)"
           id="g56"><path
             id="path58"
             style="fill:#f7f8f8;fill-opacity:1;fill-rule:nonzero;stroke:none"
             d="m 0,0 c -0.02,0.951 0.146,1.896 0.489,2.782 0.298,0.751 0.755,1.429 1.34,1.987 0.577,0.535 1.258,0.946 2,1.208 0.806,0.282 1.654,0.421 2.509,0.414 1.113,0.018 2.214,-0.245 3.199,-0.762 0.951,-0.518 1.733,-1.3 2.248,-2.252 0.511,0.946 1.281,1.727 2.221,2.252 0.965,0.517 2.047,0.78 3.141,0.762 0.843,0.005 1.681,-0.13 2.48,-0.401 0.741,-0.248 1.42,-0.655 1.989,-1.191 0.578,-0.562 1.03,-1.238 1.325,-1.987 0.344,-0.887 0.51,-1.832 0.491,-2.782 v -10.728 h -3.286 v 9.436 C 20.255,-0.102 19.937,1.058 19.252,2 18.626,2.664 17.741,3.021 16.83,2.977 15.889,2.993 14.987,2.594 14.366,1.885 13.612,0.865 13.258,-0.396 13.371,-1.658 v -9.04 h -3.278 v 9.04 C 10.205,-0.396 9.852,0.864 9.099,1.885 8.478,2.594 7.576,2.993 6.634,2.977 5.721,3.013 4.838,2.65 4.213,1.984 3.51,1.043 3.181,-0.125 3.289,-1.295 v -9.399 H 0.004 Z" /></g><g
           transform="translate(264.5316,97.5203)"
           id="g60"><path
             id="path62"
             style="fill:#f7f8f8;fill-opacity:1;fill-rule:nonzero;stroke:none"
             d="M 0,0 C 0.625,-0.007 1.241,0.136 1.801,0.414 2.348,0.689 2.83,1.079 3.214,1.557 3.621,2.069 3.929,2.653 4.12,3.278 4.337,3.976 4.444,4.701 4.437,5.431 4.443,6.143 4.336,6.852 4.12,7.53 3.928,8.146 3.62,8.719 3.214,9.219 2.826,9.688 2.345,10.072 1.801,10.346 1.241,10.624 0.625,10.765 0,10.759 -0.622,10.765 -1.238,10.628 -1.8,10.358 -2.343,10.099 -2.824,9.727 -3.213,9.267 -3.624,8.772 -3.937,8.205 -4.136,7.594 c -0.227,-0.7 -0.339,-1.433 -0.33,-2.168 -0.007,-0.731 0.105,-1.457 0.33,-2.153 0.2,-0.622 0.507,-1.205 0.908,-1.721 0.377,-0.48 0.855,-0.87 1.401,-1.143 0.568,-0.279 1.194,-0.42 1.827,-0.41 z m -7.725,4.636 c -0.023,1.385 0.172,2.764 0.578,4.089 0.334,1.09 0.882,2.104 1.614,2.981 0.681,0.799 1.54,1.428 2.508,1.838 1.031,0.43 2.139,0.644 3.256,0.629 1.046,0.011 2.082,-0.216 3.028,-0.662 C 4.176,13.072 4.994,12.453 5.665,11.689 6.372,10.873 6.915,9.929 7.266,8.907 7.658,7.779 7.854,6.592 7.843,5.397 7.855,4.199 7.665,3.006 7.28,1.871 6.939,0.859 6.412,-0.078 5.725,-0.895 5.08,-1.65 4.284,-2.264 3.389,-2.694 2.476,-3.13 1.475,-3.352 0.464,-3.341 c -1.019,-0.019 -2.025,0.232 -2.913,0.729 -0.791,0.436 -1.472,1.049 -1.989,1.789 v -8.708 h -3.287 z" /></g><g
           transform="translate(275.1596,117.2557)"
           id="g64"><path
             id="path66"
             style="fill:#f7f8f8;fill-opacity:1;fill-rule:nonzero;stroke:none"
             d="m 0,0 c -0.041,0.487 0.127,0.969 0.461,1.325 0.361,0.307 0.827,0.46 1.3,0.43 0.323,0.004 0.644,-0.047 0.951,-0.149 0.289,-0.1 0.48,-0.171 0.576,-0.215 v -24.04 H 0 Z" /></g><g
           transform="translate(281.9486,109.4793)"
           id="g68"><path
             id="path70"
             style="fill:#f7f8f8;fill-opacity:1;fill-rule:nonzero;stroke:none"
             d="m 0,0 c -0.046,0.492 0.122,0.98 0.462,1.34 0.365,0.296 0.83,0.444 1.3,0.414 C 2.085,1.758 2.406,1.707 2.714,1.604 3.002,1.506 3.193,1.435 3.288,1.391 V -14.868 H 0.003 Z M 1.645,9.199 C 2.191,9.205 2.711,8.961 3.057,8.538 3.444,8.088 3.649,7.51 3.634,6.916 3.65,6.321 3.444,5.742 3.057,5.292 2.711,4.868 2.191,4.624 1.645,4.63 1.098,4.624 0.577,4.868 0.231,5.292 c -0.387,0.45 -0.593,1.029 -0.577,1.624 -0.016,0.594 0.19,1.172 0.577,1.622 0.347,0.423 0.867,0.666 1.414,0.661" /></g><g
           transform="translate(288.8022,112.2557)"
           id="g72"><path
             id="path74"
             style="fill:#f7f8f8;fill-opacity:1;fill-rule:nonzero;stroke:none"
             d="M 0,0 C -0.028,1.071 0.141,2.138 0.5,3.146 0.79,3.938 1.259,4.651 1.869,5.232 2.451,5.766 3.146,6.162 3.902,6.392 4.72,6.641 5.57,6.764 6.425,6.756 7.704,6.83 8.984,6.621 10.173,6.144 10.877,5.881 11.354,5.221 11.384,4.471 11.39,4.114 11.294,3.765 11.11,3.46 10.959,3.197 10.758,2.967 10.519,2.781 10.322,2.939 10.104,3.068 9.87,3.162 9.576,3.289 9.272,3.395 8.963,3.477 8.626,3.567 8.284,3.64 7.938,3.692 7.61,3.745 7.277,3.772 6.944,3.775 5.948,3.833 4.972,3.487 4.235,2.815 3.514,1.985 3.16,0.897 3.255,-0.197 v -0.828 h 8.331 c 0.511,0.075 1.023,-0.12 1.356,-0.514 0.243,-0.486 0.352,-1.029 0.316,-1.572 V -17.647 H 10.001 V -4.502 H 3.257 V -17.647 H 0 Z" /></g><g
           transform="translate(308.2709,103.6785)"
           id="g76"><path
             id="path78"
             style="fill:#f7f8f8;fill-opacity:1;fill-rule:nonzero;stroke:none"
             d="m 0,0 c 0.441,-0.022 0.864,-0.032 1.269,-0.032 h 1.21 C 3.34,-0.052 4.2,0.026 5.044,0.199 5.584,0.31 6.102,0.513 6.572,0.8 6.895,0.992 7.146,1.282 7.293,1.628 7.408,1.935 7.467,2.26 7.466,2.588 7.514,3.325 7.183,4.036 6.587,4.475 5.947,4.91 5.186,5.131 4.411,5.104 3.761,5.118 3.116,4.97 2.537,4.673 2.009,4.394 1.547,4.005 1.183,3.531 0.808,3.037 0.52,2.482 0.332,1.892 0.131,1.28 0.019,0.644 0,0 M 10.121,-7.847 C 9.968,-7.957 9.728,-8.111 9.402,-8.312 9.013,-8.538 8.603,-8.727 8.177,-8.873 7.622,-9.067 7.054,-9.223 6.478,-9.337 5.779,-9.475 5.069,-9.542 4.358,-9.536 3.327,-9.545 2.304,-9.354 1.345,-8.974 c -0.928,0.373 -1.764,0.944 -2.449,1.673 -0.73,0.784 -1.293,1.707 -1.658,2.714 -0.423,1.185 -0.628,2.436 -0.606,3.693 -0.015,1.234 0.185,2.46 0.592,3.625 0.36,1.036 0.919,1.992 1.643,2.815 0.69,0.774 1.534,1.394 2.48,1.821 C 2.33,7.805 3.396,8.024 4.474,8.013 5.377,8.029 6.276,7.878 7.125,7.566 7.845,7.298 8.506,6.894 9.071,6.373 9.594,5.889 10.003,5.296 10.271,4.636 10.541,3.962 10.677,3.242 10.671,2.517 10.681,1.799 10.553,1.086 10.295,0.416 10.021,-0.242 9.561,-0.806 8.97,-1.205 8.19,-1.72 7.319,-2.08 6.403,-2.265 5.058,-2.545 3.685,-2.673 2.311,-2.646 c -0.386,0 -0.746,0.005 -1.082,0.016 -0.337,0.012 -0.701,0.028 -1.081,0.052 0.117,-1.058 0.625,-2.033 1.426,-2.734 0.973,-0.752 2.189,-1.124 3.416,-1.042 0.465,-0.003 0.929,0.042 1.384,0.132 0.388,0.078 0.769,0.19 1.137,0.332 0.298,0.115 0.587,0.248 0.866,0.401 0.24,0.132 0.418,0.231 0.533,0.3 z" /></g><g
           transform="translate(332.9652,102.9178)"
           id="g80"><path
             id="path82"
             style="fill:#f7f8f8;fill-opacity:1;fill-rule:nonzero;stroke:none"
             d="M 0,0 C 0.004,0.72 -0.108,1.436 -0.332,2.119 -0.532,2.741 -0.84,3.324 -1.24,3.841 -1.617,4.32 -2.096,4.71 -2.64,4.984 -3.199,5.262 -3.816,5.403 -4.44,5.397 -5.07,5.407 -5.693,5.266 -6.257,4.984 -6.796,4.708 -7.272,4.324 -7.657,3.857 -8.066,3.354 -8.375,2.777 -8.565,2.157 -8.782,1.461 -8.889,0.734 -8.882,0.005 c -0.008,-0.724 0.1,-1.444 0.317,-2.136 0.192,-0.615 0.501,-1.188 0.908,-1.688 0.385,-0.468 0.861,-0.851 1.4,-1.125 0.564,-0.283 1.187,-0.424 1.817,-0.414 0.623,-0.006 1.238,0.13 1.8,0.399 0.54,0.259 1.018,0.631 1.4,1.092 0.404,0.502 0.713,1.075 0.908,1.689 C -0.105,-1.475 0.007,-0.739 0,0 m 0,14.338 c -0.04,0.484 0.121,0.964 0.446,1.325 0.354,0.307 0.816,0.461 1.283,0.43 0.324,0.004 0.645,-0.047 0.952,-0.149 0.288,-0.1 0.479,-0.172 0.575,-0.215 V 0.795 C 3.283,-0.629 3.084,-2.049 2.666,-3.411 2.327,-4.502 1.773,-5.516 1.037,-6.39 0.369,-7.167 -0.47,-7.779 -1.414,-8.179 -2.392,-8.584 -3.44,-8.788 -4.499,-8.778 c -1.078,-0.013 -2.147,0.214 -3.127,0.662 -0.937,0.431 -1.776,1.052 -2.464,1.821 -0.717,0.814 -1.27,1.758 -1.629,2.781 -0.402,1.126 -0.602,2.315 -0.592,3.511 -0.012,1.199 0.178,2.392 0.563,3.527 0.344,1.015 0.872,1.957 1.557,2.782 0.64,0.765 1.436,1.385 2.335,1.821 0.914,0.435 1.915,0.655 2.926,0.645 C -3.9,8.794 -2.885,8.537 -1.99,8.027 -1.201,7.583 -0.521,6.968 0,6.228 Z" /></g><g
           transform="translate(92.4203,122.5848)"
           id="g84"><path
             id="path86"
             style="fill:#567d38;fill-opacity:1;fill-rule:nonzero;stroke:none"
             d="M 0,0 C 0,0 12.567,-1.425 12.421,-14.748 H 4.258 c 0,0 3.787,4.058 2.579,8.406 C 6.224,-4.142 4.41,-1.282 0,0" /></g><g
           transform="translate(96.7572,109.5252)"
           id="g88"><path
             id="path90"
             style="fill:#6cac44;fill-opacity:1;fill-rule:nonzero;stroke:none"
             d="m 0,0 c 0.982,1.312 1.571,2.877 1.7,4.511 0.086,1.167 -0.08,2.338 -0.487,3.434 -1.882,4.696 -13.3,7.778 -19.11,2.71 -1.597,-1.462 -2.716,-3.371 -3.213,-5.478 0,0 -1.65,-8.471 16.26,-9.406 0,0 -8.479,2.114 -8.555,4.326 -0.634,2.64 0.992,5.295 3.633,5.929 0.237,0.057 0.478,0.097 0.721,0.118 0,0 8.9,1.575 9.051,-6.144" /></g><g
           transform="translate(74.8276,112.7811)"
           id="g92"><path
             id="path94"
             style="fill:#c4d946;fill-opacity:1;fill-rule:nonzero;stroke:none"
             d="m 0,0 c 0,0 0.46,-7.8 17.107,-8.719 0,0 19.601,-1.7 11.735,-20.189 0,0 3.276,10.816 -14.356,12.192 C 14.486,-16.715 -3.803,-13.897 0,0" /></g></g></g></g></svg>
